<svg xmlns="http://www.w3.org/2000/svg" viewBox="0 0 444.99 350.46"><defs><style>.cls-1,.cls-16,.cls-17,.cls-18,.cls-20{fill:none;}.cls-1,.cls-16{stroke:#333;stroke-linecap:round;stroke-linejoin:round;}.cls-1{stroke-width:4.37px;}.cls-2{fill:#47311d;}.cls-3{fill:#755230;}.cls-4{fill:#7a5632;}.cls-5{fill:#54381c;}.cls-6{fill:#634221;}.cls-7{fill:#8c6239;}.cls-8{fill:#dec7b1;}.cls-9{fill:#333;}.cls-10{fill:#4d4d4d;}.cls-11{fill:#2e2d2d;}.cls-12{fill:#fff;}.cls-13{fill:#6b4b2c;}.cls-14{fill:#ccc;}.cls-15{fill:#ebebeb;}.cls-16{stroke-width:4.04px;}.cls-17,.cls-18{stroke:#d9d9d9;}.cls-17,.cls-18,.cls-20{stroke-miterlimit:10;}.cls-17{stroke-width:2.18px;}.cls-18{stroke-width:1.68px;}.cls-19{fill:#1a1a1a;}.cls-20{stroke:#b3b3b3;stroke-width:4.26px;}</style></defs><g id="レイヤー_2" data-name="レイヤー 2"><g id="レイヤー_1-2" data-name="レイヤー 1"><path class="cls-1" d="M410.58,95.56c-24.83,8.24-41,16.76-68.7,9.4s-34.51-38.28-69.77-38"/><path class="cls-2" d="M51,71.26C30.88,83.35,21.57,98.42,19.13,123.1s.21,53.78-8.32,78.25a85.86,85.86,0,0,0,5-14.82c-1.83,17.69-.11,34.4,3.49,51.77a133,133,0,0,1-.49-23,137.9,137.9,0,0,1,2.71,20.23,110.72,110.72,0,0,0,2-18.33c.57,7.08.89,14.15.82,21.26a182.78,182.78,0,0,0,3.57-20.79,178,178,0,0,1,.37,24.55c1.69-7.09,3.21-14.17,4.19-21.4a71.68,71.68,0,0,1,1.44,18.66,85.94,85.94,0,0,0,5.2-20.62A78.43,78.43,0,0,1,40.68,233a191.87,191.87,0,0,0,2.46-20.14,26.94,26.94,0,0,1,3.44,11.4c.06-12.53.51-19.68-1.06-33.09s-.83-21.11-1.38-38.74S38.2,87.5,51,71.26Z"/><path class="cls-3" d="M93.81,178.85c-6.59,20.78-14.67,39.55-19.22,61.3s-5,45.21-2.55,67.62c1.45,5.55,1.38,12.44,3.48,17.5s6.89,10.45,9.89,13.55,4,5,.26,5.77-8.06.18-11.64-.21-4.51,1.23-6.22-3.22A61.65,61.65,0,0,0,60.41,327c-3.47-4.83-5.37-.16-5.6-10.2s.24-28.52-2-41.1S48.5,248,46.28,235.11C61.29,215.58,75.25,195.24,93.81,178.85Z"/><path class="cls-3" d="M248.51,193.29c2.43,15.28,1.82,30.59,5.48,45.69,1.42,5.85,4.87,12.56,4.94,18.56A35.85,35.85,0,0,0,262.15,273c1.39,9.5-4.07,22-8.56,28.84s-7.72,12.29-8.18,18.29,2.35,5.25,3.54,9.85,6.9,8.91,11.07,9.5,9.55,3.85,9.79-2.33-8.31-7.32-6.65-15.84,3.64-14.11,7.38-24.79c6.09-17.41,8.95-17.34,10.32-28.46,2.28-18.34-4.83-54-1.87-79.17C268.63,188.36,258.7,191.87,248.51,193.29Z"/><path class="cls-2" d="M399.24,12.91c-.13-.86-2.08-1.79-2.46-2.67s-1.44,1.1-2.24,1c-.46,0-2.5-2.07-3-.93s-1.4,2.71-2.92,2.53-2.65-1-3.62.43a7,7,0,0,1-4.56,2.76c-1.45.07-1.94-1.13-3-.21s-1.54,2.6-3.1,2.75-3.84-1.1-5,.08S367.63,21.93,366,22s-3.19-1.27-4.16,0-1.61,2.82-3.06,2.89-3-1.27-3.69.05-.91,2.62-2.33,2.64-3.33-1.61-3.86.06-1.29,3.59-3.16,3.24-2.56-1.49-3.83.24a8,8,0,0,1-5.48,3.3c-2,.08-2.52-.14-3.44,1.32s-2.06,2.29-3.59,1.92-3.37-1.68-3.92.18-1.81,3.49-3.55,3.26-3.09-1.45-4,.15-2.53,3-4.06,3-3.1-1.55-3.59.06-.23,3-2.19,2.82-3.39-.31-4.35,1.44a5.66,5.66,0,0,1-4,3.21c-1.67.23-2.24-.61-2.73,1.05s-1.27,2.56-3,2.34-2.89-.57-3.82,1a3,3,0,0,1-3.67,1.5c-1.53-.31-1.17,1.06-2.53,1.49s-3.57-1.29-5-.56-1.78,3-3.43,2.89-4.28-.79-5.11.77-.93,2.72-2.67,1.87-3.25-1.85-4.72-.36-2.51,3.06-4.44,2.12-3.21-2.42-4.82-.71-3.46,3.35-5.61,2.64S244.62,67,243,68s-3.45,1.82-4.84,1.49-3.07-.55-3.77.13-4.74,1.1-2.55,2.39-20,5.2-2.55,4.71S267,74.6,291,67.61,381.91,33.77,399.24,12.91Z"/><path class="cls-4" d="M414,10.62c2.62-2.56,1.85-3.45,4.52-3.56.47,0-.21,1.46,0,1.64A73.22,73.22,0,0,0,404.9,30c-1-2.69-2.29-5.18-3.09-8C405.13,18.81,411.41,13.17,414,10.62Z"/><path class="cls-5" d="M413.47,26.18c-2.71,4.62-3.76,4.33-7.47,6.7a24.21,24.21,0,0,0-1.09-2.94,69.8,69.8,0,0,1,13.56-21A46.5,46.5,0,0,1,413.47,26.18Z"/><path class="cls-6" d="M396.58,24.83c3.52-4.35,8.86-14,12-19.31,1.13-1.9.3-.4,1.36-1.13a70.91,70.91,0,0,1-4.23,13.25c-2.85,5.91-5.89,10.1-11.16,14C394.24,27.44,393.06,29.18,396.58,24.83Z"/><path class="cls-7" d="M388.06,20.13A98.35,98.35,0,0,0,403.52,7.82c3.21-3.36,2.85-6,6.48-6.6,1.22-.22-.37,2.77,0,3.05-1.08.93-.27-.66-1.39,1.25-3.15,5.33-8.51,15-12,19.31s-2.35,2.61-2,6.83c.1-.26,0-.08,0-.11C389.67,29.59,387.63,25.36,388.06,20.13Z"/><path class="cls-8" d="M434.44,84.69c2.18,3.67,4.41,6.44,6.83,10.16a36.31,36.31,0,0,1,3.55,8.14c-.39,1.46-.79,3.81-1.2,5.06-1.66,5.07-3.74,7.86-8.83,9.36-3.48,1.4-6.84,2-10.19-.22s-3.89-6.25-5.06-9.8c-.74-2.22-2.7-3-4.49-4.32,1.35-5.37,2.13-9.13,6.37-13.36C424.45,86.68,430,85.24,434.44,84.69Z"/><path class="cls-8" d="M434.51,84.66c2-.12,3.94-.25,5.92-.25,2.9,6.15,5.22,11.65,4.39,18.53a37.91,37.91,0,0,0-3.55-8.09C438.87,91.13,436.57,88.39,434.51,84.66Z"/><path class="cls-7" d="M8.71,296.21C19,283.86,24.52,258.83,25.76,246.08s.75-10.16,5.92-18,10.6-15.93,13.51-24.34c9.16-26.49-4.12-36.39-11.79-60.31-15.86-28,3.14-68.06,28-77.65,34.05-13.15,47.27-5.69,74.93.67S179.74,79.32,206,80.2c6.64-1.56.42.64,10.62-2.46s30-7.14,45.45-9.23S290,62,307.84,53.16,361.22,27.38,379,21.83s11.77-3.39,24.77-1.1c5.67,1,4.87,7.24,9.44,9.51-.63,3.81-2.58,5.48-1.25,9.64,1.93,6,9.13,14.06,12,18.91s2.2,5.82,4.15,10.42,4.43,10.28,6.26,15.19c.1.25.06.12,0,.32-4.44.49-10,2-13,5-4.25,4.23-5,8-6.38,13.36-1.49-1-2.91-2.07-4.43-3-4.06-2.52-6.41-5.94-11.17-7.61s-7.18-3.22-13.06-4.75-2.57-7.19-13.12-2.85-25,20.5-34.19,31.39-19.83,27.11-19.88,41.51c-.08,18.3-8.51,20.25-16.07,30.84s-1.76,9.56-5.29,20.86-4.25,23.56,2.73,35.9,10.5,22.87,5.32,35.68-10.41,20.37-12.46,29.87,1.33,9.7-.8,16.19-14.74-2.06-16.08-5-.37-3.1,2-4.54,5.32,1.93,6.61,2.89c2.56,1.92,5.15,10.7,1,9.24s-6.51-1.47-8.94-7.21.76-14.65,4.15-23.05,7.62-14.31,5-25.3-2.9-16.41-8.84-29.22S265.88,205.25,257,192.61c-23.93,5.77-51.06,3.72-74.67,2.34s-42.42-19.13-62-23.1-11.54-2.26-24,8.81S74.79,210.22,64.11,224,49,253.77,40,269.41s-22.31,42-25.51,57.7,4.59,8.83,3.68,17.71S12.52,349.94,7.48,348s-5.43-4.6-5.92-10.13.35-7.91-1.24-15.12S3.21,303.11,8.71,296.21Z"/><path class="cls-8" d="M434.42,84.39c-1.83-4.89-4.32-10.59-6.26-15.18S426.93,63.64,424,58.8,413.92,45.91,412,39.89c-1.35-4.13.7-5.83,1.14-9.51,4.46,5.95,9.34,12.42,12.11,19.12,4.91,11.87,9.38,23,15,34.39.07.14.16.36.25.52-2,0-3.94.09-5.9.29C434.45,84.52,434.52,84.65,434.42,84.39Z"/><path class="cls-9" d="M441.8,101.51c-1.17-2.2-1.23-4.49-4.56-4s-5.26,5.21-5.32,8.3,1.94,5.3,4.61,5.38,2.72-1.83,4.16-3.29c-1.49.22-2.64,0-2.67-1.85S439.16,100.2,441.8,101.51Z"/><path class="cls-10" d="M433.8,117.59c1,.08,2.23.2,1.07-.41s-4.24-.35-5.51-2.27a15.81,15.81,0,0,1-1.8-4.63,13.68,13.68,0,0,0-2.34-5.56c-1.24-1.39-2.3-1.61-3.51-2.49-.45-.33-.66,0-.79.25s.13-.24,0,0-.12.46.32.74a11.89,11.89,0,0,1,3.28,2.32,12.66,12.66,0,0,1,2,5,18.27,18.27,0,0,0,2,5C429.67,117.5,432.8,117.51,433.8,117.59Z"/><path class="cls-11" d="M403.27,51a4.61,4.61,0,1,0,4.63-4.59A4.49,4.49,0,0,0,403.27,51Z"/><path class="cls-12" d="M404.2,49.15A1.77,1.77,0,0,0,406,51a1.82,1.82,0,1,0-1.81-1.83Z"/><path class="cls-13" d="M245.61,160.89c-1.22,12.17,2.56,19.81,12.27,27.08C241,181.59,242.06,177.55,245.61,160.89Z"/><path class="cls-13" d="M122,129.09c-1.92,14.51-7.41,25-17.93,35.14C122.22,157.9,122.49,146.33,122,129.09Z"/><path class="cls-13" d="M312.19,151.07c5.06,20.45-2.54,26.12-19.49,35.62C305,177.25,309.78,166.11,312.19,151.07Z"/><path class="cls-13" d="M369.1,58.16c-2.85,8.21-2.81,14.58,2.58,21.63C363,73.32,363.59,66.84,369.1,58.16Z"/><path class="cls-14" d="M406.18,17.51c1.88-1.53,7.23-6.59,8.81-8.15s2.72-5.22,3.76-2.12-1,9.46-1.91,12.92-3,6.16-4.51,9.25c-3.08-2.92-6-5.93-9.15-8.77C404.62,19.37,404.29,19,406.18,17.51Z"/><path class="cls-15" d="M276.11,66.37c4.35,22.85,7.5,45.4,2.95,68.48-35.59,10.53-72.5,12.41-108.11,1,3.8-19.84,5.89-39.25,4.6-59.41,12-1.83,20.36,2.88,33.23,1.64s32.21-6.77,45-8.35C263.21,68.52,267.69,68,276.11,66.37Z"/><path class="cls-1" d="M409,105.64c-25.09,7.79-43.33,16.21-70.87,8.84s-51.79-56.24-83.87-43.15c-7.87,3.21-9.64,13.06-9.89,20.6"/><path class="cls-16" d="M246.14,77.25c-4.91-6.53-10.23-6.65-17.49-3.78"/><path class="cls-17" d="M420.67,99.71a6.14,6.14,0,0,0-6.25-6.36,6,6,0,0,0-6.33,6.2,6.15,6.15,0,0,0,6.27,6.35A6,6,0,0,0,420.67,99.71Z"/><path class="cls-18" d="M412.21,84c.82,2.85,2.7,7.31-1.12,8.7-1.57.57-3.23-2.74-3.87-3.79"/><path class="cls-15" d="M381.65,83.85c2,1.66,2.39,2.58,4.87,4.16a21.88,21.88,0,0,0,9.07,3.38c3.68.49,8.08,3.39,11.18,5.77,5.53-15.25,13.62-20.42,29.78-20.77-3.74-9-4.59-14.15-8.73-24.24S414.57,28.39,405,20.88c2.79-7.08,5.38-13.12,5.33-20.88-2.74,2.09-.63-.57-3.84,3.29s-11.3,12-17.11,14.62c-5,1.7-9.66,3.29-14.38,5.41C387.8,39.41,383.38,64.74,381.65,83.85Zm19.12-33.11a7.55,7.55,0,1,1,15.09.09,7.55,7.55,0,1,1-15.09-.09Z"/><path class="cls-19" d="M233.59,131.28l-7.89-.44q.83-12.77,1.59-25.53l-9.78-.59.27-5.92c5.84-.11,9.49-1.5,11.83-7.09l6.27.35C235.2,105.13,234.4,118.2,233.59,131.28Z"/><path class="cls-20" d="M244.32,94.53c-9.09,0-11.28,11.68-11.34,18.88,3.6,2,7.25,1.94,11.21,2s7.65,0,11.27-1.92C255.57,106.22,253.4,94.56,244.32,94.53Z"/></g></g></svg>