<svg xmlns="http://www.w3.org/2000/svg" viewBox="0 0 467.35 354.4"><defs><style>.cls-1,.cls-16,.cls-17,.cls-18,.cls-20{fill:none;}.cls-1,.cls-16{stroke:#333;stroke-linecap:round;stroke-linejoin:round;}.cls-1{stroke-width:4.37px;}.cls-2{fill:#47311d;}.cls-3{fill:#755230;}.cls-4{fill:#7a5632;}.cls-5{fill:#54381c;}.cls-6{fill:#634221;}.cls-7{fill:#8c6239;}.cls-8{fill:#dec7b1;}.cls-9{fill:#333;}.cls-10{fill:#4d4d4d;}.cls-11{fill:#2e2d2d;}.cls-12{fill:#fff;}.cls-13{fill:#6b4b2c;}.cls-14{fill:#ccc;}.cls-15{fill:#ebebeb;}.cls-16{stroke-width:4.04px;}.cls-17,.cls-18{stroke:#d9d9d9;}.cls-17,.cls-18,.cls-20{stroke-miterlimit:10;}.cls-17{stroke-width:2.18px;}.cls-18{stroke-width:1.68px;}.cls-19{fill:#1a1a1a;}.cls-20{stroke:#b3b3b3;stroke-width:4.26px;}</style></defs><g id="レイヤー_2" data-name="レイヤー 2"><g id="レイヤー_1-2" data-name="レイヤー 1"><path class="cls-1" d="M433.35,96c-24.6,5.69-43.55,16.43-69.81,8.32S326.4,68.66,295.18,67.28"/><path class="cls-2" d="M73.26,71.49C54.26,85.51,44.21,99,41.08,124s-.93,53.36-8.58,78.3a94.55,94.55,0,0,0,5-14.89,212.73,212.73,0,0,0,4.43,52.43,173,173,0,0,1-1.11-23.65c1.39,6.83,2.5,13.67,3.21,20.6.76-6.27,1.36-12.54,1.5-18.85.64,7.3.94,14.61,1.47,21.91.84-7.22,2.16-14.36,2.93-21.59.67,8.67.82,17.32,1.92,25.95.34-7.79,1.64-15.23,2.69-22.94,1.26,6.31,1.46,12.61,2.17,19,1.31-7.14,3.46-14,4.47-21.25a103.61,103.61,0,0,1,1.8,14c1-6.7,1.77-13.38,2.16-20.15a34.81,34.81,0,0,1,3.69,11.49c-.33-13.25-.4-19.93-1.68-34.31s-.79-21.32-1.63-41.1S58,91.3,73.26,71.49Z"/><path class="cls-3" d="M131.11,171c-17,11-31.51,9.69-45,29.26s-28,52.88-43.28,74.53c-5.22,8.53-13.08,18.48-18.24,25.4s-8.88,15.54-10.84,21.09S12,327.9,8.44,326s-4.89-5.72-6.59-9.58-3.39-3,.64-8.55a202.19,202.19,0,0,0,14.23-21.78c4.18-7.77,1-8,9.53-17.85s22.9-34,28.27-48.29,7-25.48,9.83-39.56C86.56,170.91,107,170.49,131.11,171Z"/><path class="cls-3" d="M270.9,193.38c1.76,14.88,3.24,29.72,4,44.7.29,5.8-.18,11.63-2.87,16.75s-4.74,8.54-3.54,14.43c1.39,6.58-1.64,14.47-6.22,18.29s-8.86,5.66-11.27,10-.23,5.77-1.06,10.23,1.76,10.25,5,13.18,6.6,7.25,9.56,2.19-1.8-10.82,1.6-16.44,7.75-9.83,11.08-16.23c5.43-10.44,13.07-10.32,18-23.85,8.09-22.32,4.57-52.59,6.37-77.16C291.16,189.09,281.14,191.85,270.9,193.38Z"/><path class="cls-2" d="M420.35,13.41c1.23-1.72-.86-2-1.53-2.89s-1.36,1-2.33.84c-.56-.12-2.13-1.86-2.86-.74s-1.42,2.45-2.89,2.43-2.55-.7-3.64.54a8.07,8.07,0,0,1-4.38,2.66c-1.47.17-2-.85-3.12-.05s-1.58,2.45-3.12,2.61-3.61-.82-4.86.2-1.8,3-3.33,3.13-3.05-.91-4.13.14-1.66,2.64-3.05,2.78-2.8-.91-3.66.14-1,2.48-2.37,2.57-3-1.31-3.8.18-1.32,3.22-3.13,3.14-2.56-1.11-3.9.37-3.42,3-5.25,3.16-2.52.13-3.55,1.36-2,2.15-3.52,1.86-3.07-1.37-3.88.21-1.75,3.22-3.46,3.17-2.91-1.12-4,.21-2.41,2.79-3.94,2.86-2.84-1.22-3.62.13-.49,2.73-2.28,2.75-3.25-.07-4.27,1.44a6.88,6.88,0,0,1-3.91,3.12c-1.57.32-2.14-.29-2.84,1.13s-1.36,2.36-3,2.26-2.75-.31-3.8,1a3.72,3.72,0,0,1-3.62,1.5c-1.52-.09-1.35,1.09-2.73,1.39s-3.31-1.07-4.73-.45-1.85,2.67-3.5,2.7-3.91-.56-5,.77-1.09,2.45-2.79,1.87-3.19-1.54-4.67-.3-2.56,2.71-4.46,2-3.15-2-4.86-.61S273.17,68,271,67.61s-3.57-.63-5.28.24-3.16,1.61-4.83,1.49-2.49-.65-3.92.17-3.51.22-3,2.69-21.59,5.93-.08,4,36.13-1.82,63.48-9.84S400.31,39,420.35,13.41Z"/><path class="cls-4" d="M435.58,11.25c2.76-2.7,2.15-3,5.11-4,.52-.18-.17,1.38,0,1.53a99.87,99.87,0,0,0-13.59,21.32,72.29,72.29,0,0,1-3-8.07C427.34,18.91,432.82,14,435.58,11.25Z"/><path class="cls-5" d="M435.9,25.6c-2.54,4.69-4.37,4.52-7.74,7.5a19.1,19.1,0,0,0-1.06-3A90.21,90.21,0,0,1,440.52,9.13,45.86,45.86,0,0,1,435.9,25.6Z"/><path class="cls-6" d="M419.23,24.29c3.19-4.35,8.36-13.09,11.24-18.24,1-1.85.53-.55,1.58-1.55-1.23,4.38-2.29,9.19-4.22,13.15C425,23.54,421.44,27.56,416.67,32,417.24,27.69,416,28.64,419.23,24.29Z"/><path class="cls-7" d="M410.3,20.27A96.77,96.77,0,0,0,425,8.5c3.42-3.48,3.17-5.42,7.05-6.95,1.31-.52-.18,2.44.05,2.74-1,1.22-.64-.06-1.65,1.77-2.85,5.11-8,13.9-11.23,18.23s-2,3.38-2.56,7.65c.21-.31.13-.17.05-.21C412.06,28.91,410.32,25.76,410.3,20.27Z"/><path class="cls-8" d="M456.82,84.6c2.36,3.61,4.6,6.56,7,10.3a36.68,36.68,0,0,1,3.51,7.92c-.37,1.41-.66,3.71-1.14,4.9-1.95,4.83-4,7.62-8.88,9.48-3.44,1.31-6.77,1.82-10.08-.29s-3.82-6.1-5.25-9.5c-.89-2.13-2.66-3.07-4.49-4.32,1.83-5.16,2.45-9.34,6.69-13.47C447.21,86.67,452.54,85.36,456.82,84.6Z"/><path class="cls-8" d="M456.94,84.56c2-.08,4-.23,5.94-.26,2.74,6.06,4.54,11.77,4.47,18.44a40,40,0,0,0-3.52-7.85C461.44,91.16,459.13,88.24,456.94,84.56Z"/><path class="cls-7" d="M65.55,296.54C63.91,276.92,55.43,265.31,51.41,252s-1.1-14.13,2.58-23.11,10.68-16.17,12.65-24.84c6.22-27.32-3.41-36.18-11-60.93C38.7,117.43,58.27,77.5,81.58,67c31.94-14.4,47.35-6.07,75-.69s45.68,12.24,71.94,14c7-2.08,3.28-.53,13.49-3.45s28.9-6.09,43.87-8.91a166.52,166.52,0,0,0,46.54-15.7c16.86-8.55,48.6-23.7,65.42-29s14.67-3,28.07-2.12c5.83.38,4.81,7,9.56,9-.54,3.82-2.39,5.95-1,10,2,5.88,8.45,13.19,11.39,18s2.71,6.64,4.76,11.23,4.28,10,6.22,14.87c.1.25.08.17,0,.39-4.31.65-9.63,2-12.66,5-4.24,4.13-4.86,8.31-6.7,13.47-1.5-1-2.86-2-4.42-3-4.17-2.52-6.52-5.76-11.42-7.48s-7.4-3.57-13.66-4.82-3.84-7.08-14-1.51-24.07,19.84-32.65,30.5S343,144.65,342,157.07c-1.2,15.79-8.86,20.82-15.35,30.92S323,199.88,320,210.8s-4,23.74,2.05,35.08,10.14,24.33,4.79,36.31-13.86,26.9-17.3,37,0,13.6-3.6,21.38-12.78-.43-14.89-4.26-.14-3.8,1.94-5.85,5,1.77,6.08,2.65c2,1.77,5.81,11.74.78,10.34s-7.36-.76-8.51-8.62,2.45-18.75,6.62-28,8.26-19.77,4.93-31.17-3.22-18.5-6.38-32.34-8.59-36.39-17.25-50.19c-23.68,3.8-50.47,3.45-73.62,1.25s-41.84-17.75-62-22.4S131,168.28,118,180.28s-21.59,28.38-31.31,43.14-18.79,26-9.49,43.76,5.13,45.75,6.05,62.6,6.61,8.62,8.5,17.56-3,7-8.49,6.57-6.75-2.73-9-7.9-3.49-7.86-6.35-14.86S66.38,306.35,65.55,296.54Z"/><path class="cls-8" d="M456.84,84.25c-1.94-4.81-4.16-10.26-6.22-14.85s-1.81-6.45-4.76-11.22-9.36-12.15-11.4-18c-1.4-4,.52-6.1.82-9.77,4.36,6,9.14,12.31,12.07,18.93,5.2,11.71,9.74,23,15.3,34.41a5.34,5.34,0,0,0,.23.5c-2,0-3.94.13-5.91.33C456.89,84.44,456.94,84.5,456.84,84.25Z"/><path class="cls-9" d="M464.34,101.34c-1.39-2.08-1.49-4.41-4.74-3.73s-5,4.86-5.05,7.92,1.74,5,4.39,5.32,2.72-1.78,4.32-3.08c-1.55-.25-2.59.07-2.61-2S461.57,100.87,464.34,101.34Z"/><path class="cls-10" d="M456,117.37c1.2.2,2.69.45,1.23-.38s-4-.44-5.32-2.4a14.19,14.19,0,0,1-1.76-4.42,13.71,13.71,0,0,0-2.26-5.33c-1.19-1.44-2.35-1.67-3.57-2.61-.46-.36-.67-.14-.83.22s.16-.36,0,0-.06.47.38.78c1.16.84,2.21,1.07,3.34,2.46a12,12,0,0,1,1.91,4.79,17.48,17.48,0,0,0,1.92,4.76C452.07,117.25,454.76,117.18,456,117.37Z"/><path class="cls-11" d="M425.69,51.11a4.47,4.47,0,1,0,4.47-4.47A4.27,4.27,0,0,0,425.69,51.11Z"/><path class="cls-12" d="M426.53,49.23a1.76,1.76,0,1,0,1.76-1.76A1.68,1.68,0,0,0,426.53,49.23Z"/><path class="cls-13" d="M268.12,161c0,11.78,3.55,19.23,12.18,27.2C263.9,180.36,264.6,178.08,268.12,161Z"/><path class="cls-13" d="M144.11,129A71.17,71.17,0,0,1,126,163.63C144.29,154.29,144.17,148.45,144.11,129Z"/><path class="cls-13" d="M334.84,151.44c2.69,21.89-1.29,24.75-19.56,35.5C326.18,176.72,331.58,165.93,334.84,151.44Z"/><path class="cls-13" d="M391.42,58.45c-2.13,8.2-1.71,14.3,2.64,21.66C386.93,72.92,387,67.26,391.42,58.45Z"/><path class="cls-14" d="M428.68,17.34c1.85-1.59,6.34-5.81,8-7.49s2.58-5.41,3.94-2.07S440,16.64,439,20.13s-2.9,6.22-4.44,9.39c-3.1-2.91-6-5.91-9.26-8.69C426.76,19.46,426.82,18.94,428.68,17.34Z"/><path class="cls-15" d="M299,66.27c3.8,23,6.37,45.46,2.87,68.62-36.07,9.7-72.5,11.35-108.63,1,3.31-19.76,5.27-39.3,4.64-59.32,12.12-1,21.33,2.3,34.14,1.14s30.88-6.19,43.56-8C285,68.42,290.38,67.77,299,66.27Z"/><path class="cls-1" d="M431.92,106.23c-25.89,4.88-44.72,16.47-72.29,7.48s-47.72-53.34-82.35-41.88c-8.51,2.81-9.21,12.3-10.35,19.77"/><path class="cls-16" d="M268.76,77.13c-5.55-5.47-10.29-6-17.6-3.77"/><path class="cls-17" d="M443,99.67a6.12,6.12,0,1,0-6.12,6.07A5.82,5.82,0,0,0,443,99.67Z"/><path class="cls-18" d="M434.67,84.08c.82,3.15,2.38,6.6-1.32,8.45-1.52.76-3.15-2.34-3.64-3.45"/><path class="cls-15" d="M404,84.1c2.09,1.59,2.7,2.78,5.24,4.28a29.81,29.81,0,0,0,9.06,3.3c3.52.75,7.85,3.19,10.88,5.55C436,83.56,443.74,78,459.06,76.46c-3.93-9.18-5-15.3-9.49-25.22s-13.24-22.39-22.31-30.07c2.5-7.13,4.53-13.58,5.3-21.17-2.6,2.39-1.63.88-4.81,4.38S417.25,15.57,411.65,18c-4.82,2.05-9.76,3.49-14.43,5.65C407.61,43.27,406.19,62.59,404,84.1Zm19.3-33.26a7.33,7.33,0,1,1,14.65,0,7.33,7.33,0,0,1-14.65,0Z"/><path class="cls-19" d="M256.06,131.31l-7.94-.41q.82-12.81,1.61-25.62l-9.84-.56c.09-2,.18-4,.29-5.93,5.63-.55,9-2.19,11.91-7.14l6.31.34Q257.29,111.66,256.06,131.31Z"/><path class="cls-20" d="M266.89,95.27c-9.53,0-10.74,10.47-11.43,18,3.71,1.7,7.31,2,11.31,2s7.64-.33,11.35-2C277.57,105.74,276.43,95.28,266.89,95.27Z"/></g></g></svg>