<svg xmlns="http://www.w3.org/2000/svg" viewBox="0 0 435.57 347.75"><defs><style>.cls-1,.cls-16,.cls-17,.cls-18,.cls-19{fill:none;}.cls-1,.cls-16{stroke:#333;stroke-linecap:round;stroke-linejoin:round;}.cls-1{stroke-width:4.37px;}.cls-2{fill:#47311d;}.cls-3{fill:#755230;}.cls-4{fill:#7a5632;}.cls-5{fill:#54381c;}.cls-6{fill:#634221;}.cls-7{fill:#8c6239;}.cls-8{fill:#dec7b1;}.cls-9{fill:#333;}.cls-10{fill:#4d4d4d;}.cls-11{fill:#2e2d2d;}.cls-12{fill:#fff;}.cls-13{fill:#6b4b2c;}.cls-14{fill:#e36292;}.cls-15{fill:#ff7bac;}.cls-16{stroke-width:4.04px;}.cls-17,.cls-18{stroke:#d9d9d9;}.cls-17,.cls-18,.cls-19{stroke-miterlimit:10;}.cls-17{stroke-width:2.18px;}.cls-18{stroke-width:1.68px;}.cls-19{stroke:#b3b3b3;stroke-width:4.26px;}</style></defs><g id="レイヤー_2" data-name="レイヤー 2"><g id="レイヤー_1-2" data-name="レイヤー 1"><path class="cls-1" d="M399.9,94.62s-30.4,19.81-65.33,11.76-28-41.8-72.91-40.75"/><path class="cls-2" d="M40.81,70S10.7,82.29,8.09,121.78,3.81,191.71,0,201.94c0,0,4.52-12.37,4.76-15.23a129.26,129.26,0,0,0,4.52,51.86s-2.14-16.42-1.07-23c0,0,3.21,13.92,3.21,20.16,0,0,2.09-13.56,1.49-18.37,0,0,1.54,14.09,1.36,21.23,0,0,3-15.35,3-20.88,0,0,1.79,17.67,1.07,24.44,0,0,3.39-16.76,3.57-21.4a58.8,58.8,0,0,1,2,18.55s4.81-13.38,4.63-20.69a63.09,63.09,0,0,1,2,14.09s2.14-15.26,2-20.16c0,0,4,6.24,3.68,11.06,0,0,.06-26.4-1.54-31.93s-1.25-37.29-1.25-37.29S29.89,79.15,40.81,70Z"/><path class="cls-3" d="M83.13,177.91s-16,44.6-18.55,60.3-5.35,39.6,0,68.15c3.57,11.06,2.5,15,3.92,17.6s9.28,12.37,11,13.56,5,5.47,0,5.47H67.55c-2.85,0-5.35.13-6-2.55s-5.88-13.15-8-14.34-6-4.28-6-7.85-.24-29.49-3.09-43.53-8.33-40.2-8.33-40.2S74.59,183.21,83.13,177.91Z"/><path class="cls-3" d="M239.34,192.49s4.6,23.84,1.42,45c-1.59,13.42.17,13.24-1.42,18.19s-2.47,10.41,0,15.71c.18,5.83-2.29,26.84-3.88,33.19s-3.71,14.48-2.12,18.19,5.12,5.12,5.65,7.23,6,9.54,12.36,10.07,10.06.88,9.36-2.3-10.07-10.59-10.24-15.89-2.3-16.59-1.06-24.36a212.51,212.51,0,0,1,6-25.42c2.12-6.89,13.6-76.45,14.48-84.75Z"/><path class="cls-2" d="M389.69,12.59s-3.12-1.36-3.22-2.66.35.92-2.07,1.27c-1.4,0-3-1.66-3.22-1.2s0,3.24-3,2.81-3-.64-3.44.36-2.87,3.24-4.82,2.87-2.41-.72-2.69-.38-1,2.84-3.09,3-4.46-.88-5.08-.08-.91,3.52-3.32,3.48-3.11-1.87-4.1-.07-1.14,3-3.07,2.95-3.11-1.62-3.62-.07-.17,2.87-2.34,2.7-3.71-1.74-3.74-.06-1.28,4.14-3.19,3.33-2.87-1.58-3.62.08a6.79,6.79,0,0,1-5.61,3.4c-2.3,0-2.41-.56-3.28,1.25s-2,2.44-3.66,1.89-3.71-1.8-3.86.11-1.52,4-3.68,3.28-3.6-1.38-3.74.06-2.71,3.08-4.16,3.06-3.46-2.14-3.5-.06-.17,3.25-2.09,2.83-3.37-.84-4.37,1.35-2.23,3.22-4.16,3.19-2.41-.56-2.55.87-.29,2.85-3.06,2.42-3.12-.71-3.76,1a2.66,2.66,0,0,1-3.76,1.37c-1.2-.67-.13.52-2.2,1.53s-3.95-1.63-5.3-.74-1.5,3.36-3.43,3.06-5.06-.6-5.2.69-.78,3.12-2.57,1.91-3.1-2.39-4.82-.47-2.23,3.48-4.5,2.14-3.21-3-4.81-.73-4.29,3.57-5.72,2.63a4.58,4.58,0,0,0-5.2.21c-1.83,1.23-3.65,2.12-5,1.44s-3.86.15-3.86.15A14.31,14.31,0,0,0,221.35,71c-.8,1-8.23,4.94-6.55,5.36s45.09-4.18,64.36-8.54S388,16.94,389.69,12.59Z"/><path class="cls-4" d="M404.57,9.66c1.79-1.9,3.21-4.36,3.69-2.89a6.27,6.27,0,0,1,0,1.76c-3.41,3.56-10.81,12-13.54,21.2l-3.25-7.82C391.73,21.55,402.79,11.56,404.57,9.66Z"/><path class="cls-5" d="M402.91,26.79c-3.69,5.35-7,5.73-7,5.73l-1.16-2.79c2.73-9.17,10.13-17.64,13.54-21.2C407.93,12.65,405.94,22.38,402.91,26.79Z"/><path class="cls-6" d="M385.79,25.6c1.63-1.38,11.44-18.74,12.83-20.75.49-.72.8-.78,1-.56a63.23,63.23,0,0,1-4.13,13.39c-2.84,6.31-8.72,13-11,13.67C382.14,28.9,384.35,26.82,385.79,25.6Z"/><path class="cls-7" d="M377.74,20.2s13.71-9.69,16.35-13.34,4.9-7,5.66-6c.25.34.18,1.64-.15,3.46-.18-.22-.49-.16-1,.56-1.39,2-11.2,19.37-12.83,20.75-1.44,1.22-3.65,3.3-1.27,5.75l-.12,0C382.27,31.89,376.1,24.6,377.74,20.2Z"/><path class="cls-8" d="M424.65,84.11c.63,1.54,5.27,7.67,6.71,9.87a34.27,34.27,0,0,1,3.7,8.28c-.33,1.49-.79,3.13-1.2,5.24-1.66,8.57-8.78,9.15-8.78,9.15-1.19,1.19-6.68,2.27-10.25.13s-4.52-7.85-5-10c-.3-1.34-2.18-2.68-4.53-4.19a20.71,20.71,0,0,1,5.89-13.26C414.31,86,419.81,84.65,424.65,84.11Z"/><path class="cls-8" d="M424.65,84.11a53.28,53.28,0,0,1,5.92-.32c5.45,10.84,5.5,14,4.49,18.47a34.27,34.27,0,0,0-3.7-8.28C429.92,91.78,425.28,85.65,424.65,84.11Z"/><path class="cls-7" d="M13.56,297.79c3.21-25,2.5-47.09,2.5-54.94s2.49-13.2,5-15,2.86-4.64,13.56-24.62c10.7-22.83-1.07-27.83-13.56-59.58C9.28,95.14,30,71.23,56,62.67c35.68-11.78,59.22-.72,72.07,3.57s50.66,13.91,67.79,13.2c0,0,2.26.47,7.49-1.43s36.63-9.75,48-10,23.79-4.52,44.24-14,65.41-30,77.55-33.78,16.41-2.85,20.45,0c1.76,1.24,5.42,5.15,9.28,9.93-.37,2.08-2.54,5.25-1.44,9.11,1.61,5.62,11.67,17.26,13.09,19.85s2.32,6,3.48,9.28,6.34,14.45,6.51,15.52a1.7,1.7,0,0,0,.07.21c-4.84.54-10.34,1.92-13.45,5.23a20.71,20.71,0,0,0-5.89,13.26c-1.41-.91-3-1.87-4.51-2.94-4.05-2.86-7.61-6.19-10.94-7.62s-8.33-1.9-12.61-4.52-5-5-11.42-4-19,14.51-35.44,32.35S310.49,141,310.05,159c-.55,22.88-15.7,27.47-18.19,31s-.72,8.92-3.57,18.2a231.4,231.4,0,0,0-7.49,37.46c-1.07,11.06-1.43,20-3.22,35.32s.18,33.8.64,35.37,3.61,11.4,5.19,15.84,9.08,7.69,10.56,11.12-.28,4.4-2.32,4.4h-6.57c-5,0-9.28-2.86-10.71-6.07s-7.13-8.21-8.92-10.35-3.92-16.05-3.21-25-.35-27.12-1.78-33.18,0-10.35,0-27.12S251.9,192.54,248,191.83c-18.91,5-43.53,3.56-75.64,2.14s-54.23-22.48-64.94-24.62S91,172.56,86,177.91s-26,36.39-32.47,45S38.89,250.7,33.18,266.4s-2.85,53.87-1.78,59.94,7.85,6.06,9.63,11.77-.36,6.78-9.28,6.78-7.84-5.71-8.92-7.14-2.49-9.63-5.7-12.48S11.77,314.56,13.56,297.79Z"/><path class="cls-8" d="M424.58,83.9c-.17-1.07-5.35-12.22-6.51-15.52s-2.05-6.69-3.48-9.28S403.11,44.87,401.5,39.25c-1.1-3.86,1.07-7,1.44-9.11,5,6.19,10.35,13.85,12.37,19.09a320.81,320.81,0,0,0,15,34l.28.55a53.28,53.28,0,0,0-5.92.32A1.7,1.7,0,0,1,424.58,83.9Z"/><path class="cls-9" d="M432,100.84s-.72-4.54-4.28-4.28-5.53,5.35-5.62,8.74,2.53,5.57,5,5.36,3.87-3.54,3.87-3.54-2.67,1.13-2.76-1.73S430.74,99,432,100.84Z"/><path class="cls-10" d="M424.65,116.93l1.06-.42s-4.45-.31-6-2c-.72-.8-1.32-2.84-1.9-4.82-.72-2.47-1.41-4.81-2.51-5.75a17.18,17.18,0,0,0-3.47-2.27.53.53,0,0,0-.72.29h0a.52.52,0,0,0,.26.68,16,16,0,0,1,3.23,2.11c.87.74,1.57,3.13,2.19,5.25s1.25,4.25,2.13,5.23C420.71,117.19,424.52,116.91,424.65,116.93Z"/><path class="cls-11" d="M393,50.73A4.76,4.76,0,1,0,397.79,46,4.76,4.76,0,0,0,393,50.73Z"/><path class="cls-12" d="M394.05,48.86A1.87,1.87,0,1,0,395.92,47,1.87,1.87,0,0,0,394.05,48.86Z"/><path class="cls-13" d="M236.52,160.11s-4.28,19.21,12.31,27.26C245.64,185.52,228,185.79,236.52,160.11Z"/><path class="cls-13" d="M111.83,128.53s-1.07,23.55-18.2,34.79C93.63,163.32,117.18,160.64,111.83,128.53Z"/><path class="cls-13" d="M303.1,151.13s10.59,25-19.72,35.38C283.38,186.51,302.86,175.53,303.1,151.13Z"/><path class="cls-13" d="M359.25,58.09S352.8,72.94,362,79.73C362,79.73,346.55,71.57,359.25,58.09Z"/><path class="cls-14" d="M395.47,17.68s8.28-7.12,9.78-9.15,3.06-3.63,3.49-2.21S407.18,18,406.7,20s-4.56,9.11-4.56,9.11L393,20.43Z"/><path class="cls-15" d="M266.35,65.63s10.13,46.17,3.54,68.7c0,0-61.18,18.79-108.81.95,0,0,7.8-36,4.49-59.49,2.25-1.73,21.78,3.28,32.19,2s33-7.71,47.36-9.18C255.76,67.55,265,66,266.35,65.63Z"/><path class="cls-1" d="M398.57,104.75s-33.25,19.13-68.18,11.08-54-61.23-86.1-46c-7.89,3.72-9.89,14.33-9.68,21.65"/><path class="cls-16" d="M236.35,76.42s-5.95-11.24-17.57-3.81"/><circle class="cls-17" cx="404.59" cy="99.18" r="6.48"/><path class="cls-18" d="M402.3,83.52s3.16,8.7-.87,9.09c-1.65.16-4.11-4.19-4.11-4.19"/><path class="cls-15" d="M372,83.79a34,34,0,0,0,4.48,3.91c1.83,1.16,6,3.65,9.11,3.31S397,96.84,397,96.84s5.29-24.84,29.5-21.19c0,0-6-15.84-8.15-22.9s-16.93-28.22-23.66-32.22c0,0,7.13-16,5.17-20.46-.56-.38-2,1-2.72,1.9S389.72,12.31,379.07,18a75.22,75.22,0,0,0-14.13,5.24S377.47,30.14,372,83.79Zm18.49-33.32a7.8,7.8,0,1,1,7.8,7.8A7.8,7.8,0,0,1,390.44,50.47Z"/><path class="cls-12" d="M230.92,97.42c.31,4.27-1.6,7.89-5.73,9.37v.13c5.17.86,8.54,4.54,8.94,10,.68,9.34-7.12,14.14-15.47,14.75-8,.58-16.54-3.34-17.2-12.44-.39-5.44,2.29-9.62,7.34-11.16V108a9.11,9.11,0,0,1-7-8.63c-.31-4.21,2.87-11.9,13.63-12.69C222.51,86.15,230.35,89.62,230.92,97.42Zm-5.59,19.75c-.33-4.46-3.91-6.62-8.17-6.31-4.09.29-7.23,3.32-6.92,7.47a7.13,7.13,0,0,0,7.95,6.76C222.4,124.78,225.65,121.62,225.33,117.17ZM223,98.8c-.28-3.83-3.53-5.77-7.06-5.52-5.44.4-6.22,4.25-6.06,6.48.27,3.71,3.32,5.48,6.91,5.22S223.27,102.58,223,98.8Z"/><path class="cls-19" d="M234.6,92.74c-5,0-13.46,11.33-11.33,20.19,1.77,1.77,11.33,1.79,11.33,1.79s9.57,0,11.34-1.79C248.06,104.07,239.56,92.74,234.6,92.74Z"/></g></g></svg>